<svg width="40" height="40" viewBox="0 0 44 44" fill="none" xmlns="http://www.w3.org/2000/svg">
<g clip-path="url(#clip0_1003_888)">
<path d="M10.4589 5.29256C10.4589 8.61162 7.46425 11.1682 4.06734 10.4506C1.96662 9.95719 0.268166 8.0734 -1.14292e-05 5.92049C-0.223492 3.45362 1.11739 1.39042 3.12872 0.493375C3.70977 0.224262 4.38022 0.0897054 5.09535 0.0448532C5.18475 0.0448532 5.22944 0.0448532 5.31884 0.0448532C8.1347 0.0448532 10.4589 2.33231 10.4589 5.29256Z" fill="#1A2232"/>
<path d="M18.7277 19.8695C15.5096 17.7166 11.8892 16.1468 8.00061 15.2049C14.2134 13.5902 17.8785 6.81753 16.1353 0.0448532H25.1192C26.326 7.66973 23.7337 15.1152 18.683 19.8695H18.7277Z" fill="#1A2232"/>
<path d="M38.4388 10.5403C35.1312 10.5403 32.5836 7.53517 33.2987 4.1264C33.7457 1.9735 35.6229 0.269113 37.813 0.0448519C40.2266 -0.224261 42.3273 1.1213 43.1765 3.13965C43.4447 3.72273 43.5788 4.39551 43.6235 5.11315C43.6235 5.20285 43.6235 5.24771 43.6235 5.33741C43.6235 8.20795 41.344 10.5403 38.4388 10.5403Z" fill="#1A2232"/>
<path d="M43.7129 16.4608V25.2966C36.1145 26.5525 28.7396 23.9959 24.0018 18.9276C26.1472 15.7431 27.7116 12.1549 28.6502 8.29765C30.3487 14.3976 37.0084 17.9857 43.6682 16.2813V16.5056L43.7129 16.4608Z" fill="#1A2232"/>
<path d="M33.2539 38.7074C33.2539 35.3884 36.2486 32.8318 39.6455 33.5494C41.7909 33.998 43.4893 35.8818 43.7128 38.0795C43.981 40.5015 42.6401 42.6096 40.6288 43.4618C40.0477 43.7309 39.3773 43.8654 38.6621 43.9103C38.5728 43.9103 38.5281 43.9103 38.4387 43.9103C35.5781 43.9103 33.2539 41.6228 33.2539 38.7074Z" fill="#1A2232"/>
<path d="M27.5329 43.7757L27.0412 43.9103H18.5936C17.3421 36.2854 19.8898 28.8848 24.8511 24.0856C27.9798 26.2385 31.5555 27.8084 35.3547 28.7503C29.3207 30.4995 25.8344 37.1376 27.5329 43.7757Z" fill="#1A2232"/>
<path d="M5.22944 33.4149C8.53695 33.4149 11.0846 36.42 10.3695 39.8288C9.92254 41.9817 8.0453 43.686 5.85518 43.9103C3.44159 44.1794 1.34087 42.8338 0.49164 40.8155C0.223463 40.2324 0.0893739 39.5596 0.0446777 38.842C0.0446777 38.7523 0.0446777 38.7074 0.0446777 38.6177C0.0446777 35.7472 2.32418 33.4149 5.22944 33.4149Z" fill="#1A2232"/>
<path d="M19.711 24.9378C17.5656 28.1223 16.0012 31.7553 15.0626 35.6126C13.3642 29.4679 6.70443 25.8797 0 27.5841V27.4944V18.5688C7.59835 17.3578 14.9285 19.9144 19.711 24.9378Z" fill="#1A2232"/>
</g>
<defs>
<clipPath id="clip0_1003_888">
<rect width="50" height="50" fill="white"/>
</clipPath>
</defs>
</svg>
