<svg width="217" height="44" viewBox="0 0 217 44" fill="none" xmlns="http://www.w3.org/2000/svg">
<g clip-path="url(#clip0_1003_888)">
<path d="M63.7815 4.48522C63.7815 2.10805 65.7034 0.224262 68.117 0.224262C70.5306 0.224262 72.3632 2.0632 72.3632 4.48522C72.3632 6.90724 70.4412 8.79103 68.117 8.79103C65.7034 8.79103 63.7815 6.86239 63.7815 4.48522ZM64.586 14.5321H71.648V43.2375H64.586V14.5321Z" fill="#1A2232"/>
<path d="M77.9502 43.2375V37.6758L91.806 25.9246C97.5271 21.0357 99.449 18.2548 99.449 14.1733C99.449 9.32926 96.8567 6.63812 92.387 6.63812C87.9174 6.63812 84.8781 9.91233 84.7887 15.3394H77.4138C77.4585 6.05505 83.3584 0 92.3423 0C101.326 0 107.003 5.158 107.003 13.7696C107.003 19.6901 103.74 24.1753 97.3483 29.6922L89.7053 36.2406H107.316V43.1478H77.9502V43.2375Z" fill="#1A2232"/>
<path d="M109.819 14.5321H117.328L122.289 27.7187C123.496 31.1274 124.479 34.1325 124.837 35.6575C125.239 33.8634 126.267 30.8135 127.518 27.7187L132.748 14.5321H140.033L128.099 43.2375H121.171L109.819 14.5321Z" fill="#1A2232"/>
<path d="M141.016 28.8848C141.016 19.8695 146.872 13.6799 155.275 13.6799C163.677 13.6799 169.309 19.421 169.309 28.3914V30.5443H147.766C148.302 35.6575 150.939 38.2141 155.632 38.2141C159.521 38.2141 162.068 36.6891 162.873 33.9531H169.399C168.192 40.2324 162.962 44 155.498 44C147.006 44 141.016 37.7655 141.016 28.8848ZM147.9 26.0591H162.247C162.247 22.1121 159.521 19.5107 155.319 19.5107C151.118 19.5107 148.615 21.7533 147.9 26.0591Z" fill="#1A2232"/>
<path d="M179.455 34.4913C179.5 37.0031 181.377 38.5729 184.595 38.5729C187.813 38.5729 189.691 37.2273 189.691 35.1641C189.691 33.7288 188.931 32.6524 186.383 32.0693L181.243 30.8583C176.103 29.6921 173.6 27.2701 173.6 22.6504C173.6 16.999 178.338 13.6351 184.953 13.6351C191.568 13.6351 195.725 17.3578 195.769 22.9195H189.065C189.02 20.4974 187.366 18.9276 184.64 18.9276C181.913 18.9276 180.26 20.2283 180.26 22.3364C180.26 23.9511 181.556 25.0275 183.969 25.6106L189.11 26.8216C193.937 27.9429 196.35 30.1407 196.35 34.5362C196.35 40.367 191.434 43.9551 184.372 43.9551C177.31 43.9551 172.751 40.1427 172.751 34.4913H179.455Z" fill="#1A2232"/>
<path d="M204.396 43.2375V20.4526H198.898V14.5321H204.396V5.56167H211.458V14.5321H217V20.4526H211.458V43.2375H204.396Z" fill="#1A2232"/>
<path d="M10.4589 5.29256C10.4589 8.61162 7.46425 11.1682 4.06734 10.4506C1.96662 9.95719 0.268166 8.0734 -1.14292e-05 5.92049C-0.223492 3.45362 1.11739 1.39042 3.12872 0.493375C3.70977 0.224262 4.38022 0.0897054 5.09535 0.0448532C5.18475 0.0448532 5.22944 0.0448532 5.31884 0.0448532C8.1347 0.0448532 10.4589 2.33231 10.4589 5.29256Z" fill="#1A2232"/>
<path d="M18.7277 19.8695C15.5096 17.7166 11.8892 16.1468 8.00061 15.2049C14.2134 13.5902 17.8785 6.81753 16.1353 0.0448532H25.1192C26.326 7.66973 23.7337 15.1152 18.683 19.8695H18.7277Z" fill="#1A2232"/>
<path d="M38.4388 10.5403C35.1312 10.5403 32.5836 7.53517 33.2987 4.1264C33.7457 1.9735 35.6229 0.269113 37.813 0.0448519C40.2266 -0.224261 42.3273 1.1213 43.1765 3.13965C43.4447 3.72273 43.5788 4.39551 43.6235 5.11315C43.6235 5.20285 43.6235 5.24771 43.6235 5.33741C43.6235 8.20795 41.344 10.5403 38.4388 10.5403Z" fill="#1A2232"/>
<path d="M43.7129 16.4608V25.2966C36.1145 26.5525 28.7396 23.9959 24.0018 18.9276C26.1472 15.7431 27.7116 12.1549 28.6502 8.29765C30.3487 14.3976 37.0084 17.9857 43.6682 16.2813V16.5056L43.7129 16.4608Z" fill="#1A2232"/>
<path d="M33.2539 38.7074C33.2539 35.3884 36.2486 32.8318 39.6455 33.5494C41.7909 33.998 43.4893 35.8818 43.7128 38.0795C43.981 40.5015 42.6401 42.6096 40.6288 43.4618C40.0477 43.7309 39.3773 43.8654 38.6621 43.9103C38.5728 43.9103 38.5281 43.9103 38.4387 43.9103C35.5781 43.9103 33.2539 41.6228 33.2539 38.7074Z" fill="#1A2232"/>
<path d="M27.5329 43.7757L27.0412 43.9103H18.5936C17.3421 36.2854 19.8898 28.8848 24.8511 24.0856C27.9798 26.2385 31.5555 27.8084 35.3547 28.7503C29.3207 30.4995 25.8344 37.1376 27.5329 43.7757Z" fill="#1A2232"/>
<path d="M5.22944 33.4149C8.53695 33.4149 11.0846 36.42 10.3695 39.8288C9.92254 41.9817 8.0453 43.686 5.85518 43.9103C3.44159 44.1794 1.34087 42.8338 0.49164 40.8155C0.223463 40.2324 0.0893739 39.5596 0.0446777 38.842C0.0446777 38.7523 0.0446777 38.7074 0.0446777 38.6177C0.0446777 35.7472 2.32418 33.4149 5.22944 33.4149Z" fill="#1A2232"/>
<path d="M19.711 24.9378C17.5656 28.1223 16.0012 31.7553 15.0626 35.6126C13.3642 29.4679 6.70443 25.8797 0 27.5841V27.4944V18.5688C7.59835 17.3578 14.9285 19.9144 19.711 24.9378Z" fill="#1A2232"/>
</g>
<defs>
<clipPath id="clip0_1003_888">
<rect width="217" height="44" fill="white"/>
</clipPath>
</defs>
</svg>
